<?xml version="1.0" encoding="utf-8"?>
<!-- Uploaded to: SVG Repo, www.svgrepo.com, Generator: SVG Repo Mixer Tools -->
<svg fill="#000000" width="800px" height="800px" viewBox="0 0 32 32" version="1.1" xmlns="http://www.w3.org/2000/svg">
<title>hot-surface</title>
<path d="M14.125 22.094c-2.813-9.375 2.813-9.375 0-18.75h3.75c2.813 9.375-2.813 9.375 0 18.75h-3.75zM1 26.781v1.875h30v-1.875c0-1.875 0-1.875-1.875-1.875 0 0-0.937-1.875-1.875-1.875-1.875 0-1.875 2.813-3.75 2.813s-1.875-2.813-3.75-2.813-1.875 2.813-3.75 2.813-1.875-2.813-3.75-2.813-1.875 2.813-3.75 2.813-1.875-2.813-3.75-2.813c-0.937 0-1.875 1.875-1.875 1.875-1.875 0.001-1.875 0.001-1.875 1.875zM6.625 22.094c-2.813-9.375 2.813-9.375 0-18.75h3.75c2.813 9.375-2.813 9.375 0 18.75h-3.75zM21.625 22.094c-2.813-9.375 2.813-9.375 0-18.75h3.75c2.813 9.375-2.813 9.375 0 18.75h-3.75z"></path>
</svg>