<svg width="72" height="79" viewBox="0 0 72 79" fill="none" xmlns="http://www.w3.org/2000/svg">
<path d="M71.589 16.6987C71.5009 16.5248 71.3688 16.3943 71.2367 16.2059C71.0605 15.945 70.7523 15.7275 70.444 15.5971C70.4 15.5101 70.3119 15.5101 70.2679 15.4666L37.2844 0.260917C36.4771 -0.0869725 35.5083 -0.0869725 34.7009 0.260917L1.73211 15.4666C1.73211 15.4666 1.6 15.5101 1.55596 15.5971C1.24771 15.7275 0.939449 15.945 0.763303 16.2059C0.631193 16.3798 0.499083 16.5103 0.411009 16.6987C0.13211 17.1336 0 17.6699 0 18.1917V60.8083C0 61.9969 0.66055 63.0406 1.73211 63.5769L34.3486 78.5651L34.7009 78.7391C34.8771 78.8261 35.0532 78.8695 35.2294 78.913C35.4495 78.9565 35.7284 79 35.9927 79C36.2569 79 36.5211 78.9565 36.756 78.913C37.0642 78.8695 37.3725 78.7391 37.6514 78.5651L70.2679 63.5769C71.3394 63.0406 72 61.9969 72 60.8083V18.1917C72 17.6699 71.8679 17.1336 71.6037 16.6987H71.589ZM6.09174 22.9317L32.9248 35.2818V71.2739L6.09174 58.9239V22.9317ZM36.0367 30.049H35.9486L10.5835 18.3222L10.2752 18.1917L35.9927 6.3345L61.7101 18.1917L50.4954 23.3811L36.0367 30.0635V30.049ZM65.8936 58.9239L39.0752 71.2739V35.2818L65.8936 22.9317V58.9094V58.9239Z" fill="white"/>
</svg>
