<?xml version="1.0" encoding="utf-8"?>
<!-- Generator: Adobe Illustrator 26.0.1, SVG Export Plug-In . SVG Version: 6.00 Build 0)  -->
<svg version="1.1" id="Capa_1" xmlns="http://www.w3.org/2000/svg" xmlns:xlink="http://www.w3.org/1999/xlink" x="0px" y="0px"
	 viewBox="0 0 800 800" style="enable-background:new 0 0 800 800;" xml:space="preserve">
<style type="text/css">
	.st0{clip-path:url(#SVGID_00000018928792416265586180000016967689373735900857_);}
</style>
<g>
	<defs>
		<rect id="SVGID_1_" width="800" height="800"/>
	</defs>
	<clipPath id="SVGID_00000114060471922321627090000009308422429559819965_">
		<use xlink:href="#SVGID_1_"  style="overflow:visible;"/>
	</clipPath>
	<g style="clip-path:url(#SVGID_00000114060471922321627090000009308422429559819965_);">
		<g>
			<path d="M983.9,290.6h-433V98.8H249.2v191.8h-433c-22.6,0-41,18.3-41,40.9s18.3,40.9,41,40.9h433v191.8h101v62.2
				c0,22.1,14.6,40.7,34.5,47.2c1.2,20.7,5.9,34.5,14.8,44.2c15.6,17,40.1,16.9,71.5,16.7c9.2,0,19.1-0.1,29.8,0.3
				c20.3,0.6,30.9,4.2,35.3,6.6c-9.7,8-50.3,21.3-135.8,12.7c-45.8-4.7-109.2-7.7-129.9,20.2c-5.6,7.5-10.5,20.5-2.5,39.8
				c6.5,15.8,19.8,24.1,35.8,28.5l-103.5,54.8l1.5,2.8l-1.7-0.3V1173l226.1,53.3l173.8-95.6l-0.4-266.8l0.2-5.9l-0.2,0v-0.5
				l-0.6,0.3l-184.6-39.5l-25.3-5.4l-20.9-4.5l-25.3,13.4c-23.9-1.1-45.3-4.2-50.9-17.9c-4.1-9.8-1.5-13.3-0.6-14.5
				c4.3-5.8,23.2-18.4,108.6-9.7c80.6,8.1,143.1-2.1,159.6-26.1c4.9-7.2,5.6-15.5,1.9-22.9c-8.6-17-37.2-21.4-59.6-22.1
				c-11.1-0.4-21.4-0.4-30.7-0.3c-25.7,0.2-44.4,0.2-52.3-8.4c-4.3-4.6-6.7-13.1-7.8-25.3c22.3-4.9,39.1-24.8,39.1-48.6v-62.2h101
				V372.4h433c22.6,0,40.9-18.3,40.9-40.9C1024.8,308.9,1006.4,290.6,983.9,290.6z M414.7,1210.1L212,1163.5V914.7l202.7,43.6
				V1210.1z"/>
			<path d="M220.1,210.3h8.6v-87.3h-8.6c-24.1,0-43.6,19.5-43.6,43.6S196,210.3,220.1,210.3z"/>
			<path d="M564.3,123.1v87.3h8.6c24.1,0,43.6-19.5,43.6-43.6S597,123,572.9,123L564.3,123.1L564.3,123.1z"/>
			<path d="M422,89.1l7.1-0.1c-0.5-43.1,9.4-74.2,30.3-94.9c39.7-39.2,116.9-37.4,191.5-35.5C728.6-39.5,809-37.6,852.2-83
				c24.3-25.5,34.2-62.3,30.6-112.6l-25.7,1.9c3.1,42.6-4.6,73-23.5,92.9C810.4-76.5,771.8-69,726.8-67.1
				c10.1-5.3,19.4-11.7,27.4-20.3c24.1-26,33.8-65.7,29.7-121.1l-25.8,1.9c3.5,47.9-4,81.2-22.9,101.7
				c-28.5,30.8-81.4,31.2-137.5,31.5c-60.9,0.4-124,0.7-163.9,41.3c-26.1,26.5-38.4,66.5-37.7,122.1l25.9-0.3
				C421.9,89.4,422,89.2,422,89.1z"/>
		</g>
	</g>
</g>
</svg>
